GIL03_slow3_RRA_states
nRows=8
nColumns=47

# SIMM Motion File Header:
name GIL03_slow3_RRA_states
datacolumns 47
datarows 8
otherdata 1
range 0.85167000000000048000 0.85517000000000043000
endheader
time	pelvis_tx	pelvis_ty	pelvis_tz	pelvis_tilt	pelvis_list	pelvis_rotation	hip_flexion_r	hip_adduction_r	hip_rotation_r	knee_angle_r	ankle_angle_r	subtalar_angle_r	mtp_angle_r	hip_flexion_l	hip_adduction_l	hip_rotation_l	knee_angle_l	ankle_angle_l	subtalar_angle_l	mtp_angle_l	lumbar_extension	lumbar_bending	lumbar_rotation	pelvis_tx_u	pelvis_ty_u	pelvis_tz_u	pelvis_tilt_u	pelvis_list_u	pelvis_rotation_u	hip_flexion_r_u	hip_adduction_r_u	hip_rotation_r_u	knee_angle_r_u	ankle_angle_r_u	subtalar_angle_r_u	mtp_angle_r_u	hip_flexion_l_u	hip_adduction_l_u	hip_rotation_l_u	knee_angle_l_u	ankle_angle_l_u	subtalar_angle_l_u	mtp_angle_l_u	lumbar_extension_u	lumbar_bending_u	lumbar_rotation_u
      0.85167000000000048000	      1.13998136532124090000	      0.87603211801072600000	     -0.18498837900372278000	     -0.59843803859875022000	      0.09505451826509371500	     -4.80867604285640130000	    -14.00189228334814500000	      1.47721720843651010000	     -3.71779607638577400000	    -14.17227030480379600000	     12.74600549115137900000	     -0.00000000000038421299	      0.00000000000004553433	     22.79485329441654800000	      0.27053527248695564000	      4.57843500714150050000	    -15.06485502867198900000	     -2.91982618904531500000	     -0.00000000000001101699	     -0.00000000000000314130	     -8.91735474126217480000	      0.13624027845961398000	      8.92755148273774420000	      0.92706448090891225000	      0.01808195628241873400	     -0.12090310706107102000	    -25.93126974594747500000	     19.92033761887422800000	      1.70345715241345230000	     -1.56946186529265620000	    -42.89082288340998900000	     -5.45234579990632100000	    -52.49775647266275800000	    -73.92784033307486900000	     -0.00000000000230634394	      0.00000000000147141931	      8.58714434284108920000	     38.53122278192006400000	      5.78149852645198510000	    -73.30840425493927600000	    -20.31047089727476200000	     -0.00000000000002478316	     -0.00000000000007961677	     48.31000397199327500000	    -19.36398948251987700000	     35.19326570379281100000
      0.85217000000000043000	      1.14044517771511370000	      0.87604120748713044000	     -0.18504893447654985000	     -0.61138749413830529000	      0.10499965769047871000	     -4.80779370175392360000	    -14.00267001421689300000	      1.45577046359644100000	     -3.72045721726180380000	    -14.19856322468466900000	     12.70886308593861900000	     -0.00000000000038536147	      0.00000000000004626716	     22.79905804788594600000	      0.28980440210235370000	      4.58128418997726250000	    -15.10140806656561300000	     -2.92980640353298180000	     -0.00000000000001102850	     -0.00000000000000318079	     -8.89317290930397060000	      0.12658696708355457000	      8.94515041036803990000	      0.92818364759822014000	      0.01827636622158100200	     -0.12131834399864806000	    -25.86605645282730500000	     19.85992752039506800000	      1.82574340558848560000	     -1.54116608878359030000	    -42.89598269973772900000	     -5.19296356060592950000	    -52.67513327583521500000	    -74.64243776177180200000	     -0.00000000000231250900	      0.00000000000148173200	      8.23122464690236910000	     38.54490260348481500000	      5.61462163984781530000	    -72.90367822592682500000	    -19.60971025451498700000	     -0.00000000000002041313	     -0.00000000000007630000	     48.41655196883864700000	    -19.24899168203016200000	     35.20213983923770900000
      0.85267000000000048000	      1.14090954750413150000	      0.87605039480869307000	     -0.18510969694657023000	     -0.62430360406148044000	      0.11491417581801980000	     -4.80685043739772500000	    -14.00343315018009700000	      1.43432137868239760000	     -3.72298982913687440000	    -14.22494662510192500000	     12.67136201893904400000	     -0.00000000000038653071	      0.00000000000004702159	     22.80308390770144200000	      0.30907982299506304000	      4.58404901916374550000	    -15.13775869719985900000	     -2.93943500357984930000	     -0.00000000000001103771	     -0.00000000000000322085	     -8.86893895641530780000	      0.11699153008637239000	      8.96275328773665510000	      0.92929402458495380000	      0.01847336646686387900	     -0.12173117376619857000	    -25.79789733241111800000	     19.79789782666695800000	      1.94720194564347750000	     -1.51107475371744580000	    -42.90022496502586300000	     -4.93831695110978600000	    -52.85963207089059800000	    -75.36324056739283600000	     -0.00000000000233214182	      0.00000000000150903460	      7.87163739369981920000	     38.55647012213334100000	      5.44408724564550890000	    -72.49889483752808400000	    -18.90357408257056400000	     -0.00000000000002641646	     -0.00000000000007955803	     48.51849712937770700000	    -19.13253431621374300000	     35.20900479994902100000
      0.85317000000000043000	      1.14137447023699500000	      0.87605968132038470000	     -0.18517066523336584000	     -0.63718490332521482000	      0.12479728794475355000	     -4.80584663705176850000	    -14.00418077341175200000	      1.41287038921623820000	     -3.72539634730045850000	    -14.25142406199940800000	     12.63349881650565400000	     -0.00000000000038769146	      0.00000000000004776983	     22.80692908762372500000	      0.32836051915771219000	      4.58672766756544980000	    -15.17390697300168200000	     -2.94870910401674640000	     -0.00000000000001105291	     -0.00000000000000325876	     -8.84465518110460280000	      0.10745467062697321000	      8.98035907641461150000	      0.93039538389364174000	      0.01867316721437357900	     -0.12214150164471739000	    -25.72680947562787800000	     19.73426290963360700000	      2.06783706309517830000	     -1.47909000300748580000	    -42.90356382866968900000	     -4.68854943754856100000	    -53.05136228527423000000	    -76.09021511049424200000	     -0.00000000000233680385	      0.00000000000152572658	      7.50846491951032210000	     38.56591953781102000000	      5.26989507726737470000	    -72.09418194057722900000	    -18.19219482070634100000	     -0.00000000000003300516	     -0.00000000000007434026	     48.61582865031361700000	    -19.01465002327693200000	     35.21383701053792900000
      0.85367000000000048000	      1.14183994134687210000	      0.87606906847794930000	     -0.18523183801691179000	     -0.65002992845388086000	      0.13464817422495745000	     -4.80478273608816320000	    -14.00491190791331400000	      1.39141796248176110000	     -3.72767921662161280000	    -14.27799921155450100000	     12.59527078338487300000	     -0.00000000000038886359	      0.00000000000004854282	     22.81059178982950900000	      0.34764539000936007000	      4.58931830442880350000	    -15.20985291391017600000	     -2.95762633502446540000	     -0.00000000000001106912	     -0.00000000000000329673	     -8.82032389826446030000	      0.09797711191618443900	      8.99796678118720550000	      0.93148749485719196000	      0.01887598003530204700	     -0.12254924144428553000	    -25.65281123770310500000	     19.66904118563600800000	      2.18765762412663940000	     -1.44511162566608430000	    -42.90601704666188700000	     -4.44381067456204890000	    -53.25043734111812900000	    -76.82331096621220500000	     -0.00000000000235277537	      0.00000000000156683082	      7.14179631224994790000	     38.57325408559295000000	      5.09204427577335040000	    -71.68967849730991300000	    -17.47563373367028600000	     -0.00000000000003347864	     -0.00000000000007659438	     48.70853707923976100000	    -18.89537489908006100000	     35.21660774055540300000
      0.85417000000000043000	      1.14230595615275150000	      0.87607855783842992000	     -0.18529321402724219000	     -0.66283723261474781000	      0.14446606718030006000	     -4.80365911444680190000	    -14.00562553638748600000	      1.36996451732192770000	     -3.72984101923520410000	    -14.30467574139720500000	     12.55667449186426400000	     -0.00000000000039003811	      0.00000000000004931710	     22.81407031515495000000	      0.36693341993978312000	      4.59181910225444940000	    -15.24559670710486300000	     -2.96618389773637590000	     -0.00000000000001108596	     -0.00000000000000333468	     -8.79594741592485190000	      0.08855952194369064200	      9.01557533676252550000	      0.93257012979138876000	      0.01908202068140600300	     -0.12295429565788403000	    -25.57592145286532000000	     19.60224797121621500000	      2.30666811088979800000	     -1.40904129507624520000	    -42.90759945492274600000	     -4.20424002970406540000	    -53.45696467238503400000	    -77.56248739048381000000	     -0.00000000000233404878	      0.00000000000152768141	      6.77171573759473680000	     38.57846911562258200000	      4.91053616515047690000	    -71.28550959812389500000	    -16.75403071412890600000	     -0.00000000000003043100	     -0.00000000000007696881	     48.79661406208622100000	    -18.77474270775510600000	     35.21729389033589500000
      0.85467000000000048000	      1.14277250985920210000	      0.87608815107279903000	     -0.18535479185018622000	     -0.67560537130199594000	      0.15425016345062223000	     -4.80247620148607980000	    -14.00632058379071200000	      1.34851050512692330000	     -3.73188434216780160000	    -14.33145743686188900000	     12.51770729197995300000	     -0.00000000000039119781	      0.00000000000005005346	     22.81736295192575500000	      0.38622350655553495000	      4.59422823128117400000	    -15.28113850186531100000	     -2.97437953535399210000	     -0.00000000000001110096	     -0.00000000000000337158	     -8.77152805726986880000	      0.07920258925576426100	      9.03318372297453290000	      0.93364305856100072000	      0.01929150614935091000	     -0.12335657531468056000	    -25.49616016252703300000	     19.53390249279499700000	      2.42487750635273350000	     -1.37077846083814170000	    -42.90832938548932400000	     -3.96998293155668550000	    -53.67105563009618400000	    -78.30768652863932300000	     -0.00000000000235817466	      0.00000000000152309539	      6.39831393092414390000	     38.58156900667340500000	      4.72537245907404290000	    -70.88181168156967300000	    -16.02744348302524500000	     -0.00000000000003473499	     -0.00000000000006716663	     48.88005255401164100000	    -18.65279051991703000000	     35.21586731320035600000
      0.85517000000000043000	      1.14323959755594970000	      0.87609784995563211000	     -0.18541657012344134000	     -0.68833291759815396000	      0.16399971363648941000	     -4.80123436968547960000	    -14.00699593297179900000	      1.32705632744724730000	     -3.73381191021048940000	    -14.35834807522030400000	     12.47836580927181400000	     -0.00000000000039237012	      0.00000000000005082293	     22.82046808975885800000	      0.40551463578647956000	      4.59654386589365860000	    -15.31647861751974400000	     -2.98221053537110590000	     -0.00000000000001111849	     -0.00000000000000340534	     -8.74706813743005540000	      0.06990694564708528600	      9.05079084822237870000	      0.93470605375918592000	      0.01950465768791144800	     -0.12375598011072432000	    -25.41354794488310300000	     19.46402100428753100000	      2.54229047538648830000	     -1.33022432331639990000	    -42.90822235290878000000	     -3.74117463925670220000	    -53.89281565938907900000	    -79.05886054045110700000	     -0.00000000000232707442	      0.00000000000153892195	      6.02167688495603400000	     38.58255024753474100000	      4.53655608560848920000	    -70.47870708146075500000	    -15.29601898823416700000	     -0.00000000000003736644	     -0.00000000000006376660	     48.95884665186770200000	    -18.52955321712898900000	     35.21230539636305000000
